#N canvas 2656 223 678 658 12;
#X obj 51 11 bng 10 250 50 0 \$0-bng \$0-bng empty 17 7 0 10 #fcfcfc
#000000 #000000;
#X obj 21 11 bng 10 250 50 0 \$0-bng \$0-bng empty 17 7 0 10 #fcfcfc
#000000 #000000;
#X obj 31 11 bng 10 250 50 0 \$0-bng \$0-bng empty 17 7 0 10 #fcfcfc
#000000 #000000;
#X obj 41 11 bng 10 250 50 0 \$0-bng \$0-bng empty 17 7 0 10 #fcfcfc
#000000 #000000;
#X obj 173 39 r \$0-bng;
#X obj 173 67 tgl 15 0 empty empty empty 17 7 0 10 #fcfcfc #000000
#000000 0 1;
#X obj 173 87 sel 0 1;
#X obj 173 213 s \$0-cnv;
#X floatatom 225 138 5 0 0 0 - - - 0;
#X obj 285 5 loadbang;
#X msg 289 72 0;
#X obj 260 354 s \$1-ctl;
#X obj 258 300 pack 0 s;
#X obj 311 264 symbol \$2;
#X obj 292 42 bng 15 250 50 0 empty empty empty 17 7 0 10 #fcfcfc #000000
#000000;
#X obj 11 11 bng 10 250 50 0 \$0-bng \$0-bng empty 20 12 0 10 #fcfcfc
#000000 #000000;
#X obj 11 11 cnv 10 51 11 \$0-cnv \$0-cnv bandp 9 5 0 8 #14e814 #000000
0;
#X obj 35 91 r \$1-ctl;
#X obj 35 115 route \$2;
#X floatatom 35 165 5 0 0 0 - - - 0;
#X msg 35 250 1;
#X msg 64 223 0;
#X msg 110 103 set \$1;
#X obj 34 285 sel 0 1;
#X msg 173 171 label bandp \, color 16 -1 -1;
#X floatatom 408 56 5 0 0 0 - - - 0;
#X msg 193 116 label notch \, color 14 -1 -1;
#X msg 258 325 \$2 bias-type \$1;
#X msg 197 255 0;
#X msg 236 254 1;
#X obj 35 139 route bias-type;
#X obj 35 188 sel 1 0;
#X connect 4 0 5 0;
#X connect 5 0 6 0;
#X connect 6 0 24 0;
#X connect 6 0 28 0;
#X connect 6 1 26 0;
#X connect 6 1 29 0;
#X connect 8 0 24 0;
#X connect 9 0 14 0;
#X connect 10 0 5 0;
#X connect 12 0 27 0;
#X connect 13 0 12 1;
#X connect 14 0 10 0;
#X connect 14 0 13 0;
#X connect 17 0 18 0;
#X connect 18 0 30 0;
#X connect 19 0 31 0;
#X connect 20 0 22 0;
#X connect 20 0 23 0;
#X connect 21 0 22 0;
#X connect 21 0 23 0;
#X connect 22 0 5 0;
#X connect 23 0 24 0;
#X connect 23 1 26 0;
#X connect 24 0 7 0;
#X connect 25 0 26 0;
#X connect 26 0 7 0;
#X connect 27 0 11 0;
#X connect 28 0 12 0;
#X connect 29 0 12 0;
#X connect 30 0 19 0;
#X connect 31 0 20 0;
#X connect 31 1 21 0;
#X coords 0 -1 1 1 53 13 2 10 10;
