#N canvas 345 16 565 602 12;
#X obj 51 11 bng 10 250 50 0 \$0-bng \$0-bng empty 17 7 0 10 #fcfcfc
#000000 #000000;
#X obj 21 11 bng 10 250 50 0 \$0-bng \$0-bng empty 17 7 0 10 #fcfcfc
#000000 #000000;
#X obj 31 11 bng 10 250 50 0 \$0-bng \$0-bng empty 17 7 0 10 #fcfcfc
#000000 #000000;
#X obj 41 11 bng 10 250 50 0 \$0-bng \$0-bng empty 17 7 0 10 #fcfcfc
#000000 #000000;
#X obj 173 39 r \$0-bng;
#X obj 173 67 tgl 15 0 empty empty empty 17 7 0 10 #fcfcfc #000000
#000000 0 1;
#X obj 173 87 sel 0 1;
#X obj 173 213 s \$0-cnv;
#X floatatom 225 138 5 0 0 0 - - - 0;
#X msg 173 171 label phase \, color 16 -1 -1;
#X msg 198 116 label invert \, color 13 0 0;
#X obj 285 5 loadbang;
#X msg 289 72 0;
#X obj 258 353 s \$1-ctl;
#X obj 258 300 pack 0 s;
#X obj 311 264 symbol \$2;
#X obj 292 42 bng 15 250 50 0 empty empty empty 17 7 0 10 #fcfcfc #000000
#000000;
#X msg 258 325 \$2 phase \$1;
#X msg 236 254 -1;
#X msg 197 255 1;
#X obj 12 11 bng 10 250 50 0 \$0-bng \$0-bng empty 17 7 0 10 #fcfcfc
#000000 #000000;
#X obj 11 11 cnv 10 51 11 \$0-cnv \$0-cnv phase 7 5 0 8 #14e814 #000000
0;
#X connect 4 0 5 0;
#X connect 5 0 6 0;
#X connect 6 0 9 0;
#X connect 6 0 19 0;
#X connect 6 1 10 0;
#X connect 6 1 18 0;
#X connect 8 0 9 0;
#X connect 9 0 7 0;
#X connect 10 0 7 0;
#X connect 11 0 16 0;
#X connect 12 0 5 0;
#X connect 14 0 17 0;
#X connect 15 0 14 1;
#X connect 16 0 12 0;
#X connect 16 0 15 0;
#X connect 17 0 13 0;
#X connect 18 0 14 0;
#X connect 19 0 14 0;
#X coords 0 -1 1 1 53 13 2 10 10;
