#N canvas 848 85 785 264 12;
#X obj 38 56 abs~;
#X obj 38 106 scale~ 0 1 1 0 0.1, f 88;
#X obj 38 23 inlet~;
#X obj 38 208 outlet~;
#X obj 38 182 slide~ \$1 \$2, f 29;
#X obj 137 24 inlet ramp-up;
#X obj 237 24 inlet ramp-down;
#X obj 416 24 inlet min-amp;
#X obj 523 24 inlet max-amp;
#X obj 651 24 inlet exp-base;
#X obj 137 49 change 0;
#X obj 237 52 change 0;
#X obj 416 56 change 0;
#X obj 523 54 change 0;
#X obj 651 53 change 0;
#X obj 38 151 clip~ 0 1;
#X connect 0 0 1 0;
#X connect 1 0 15 0;
#X connect 2 0 0 0;
#X connect 4 0 3 0;
#X connect 5 0 10 0;
#X connect 6 0 11 0;
#X connect 7 0 12 0;
#X connect 8 0 13 0;
#X connect 9 0 14 0;
#X connect 10 0 4 1;
#X connect 11 0 4 2;
#X connect 12 0 1 4;
#X connect 13 0 1 3;
#X connect 13 0 15 2;
#X connect 14 0 1 5;
#X connect 15 0 4 0;
