#N canvas 2056 2 911 851 12;
#X obj 28 70 inlet;
#X obj 104 459 * \$1;
#X obj 29 542 bp~, f 22;
#X floatatom 104 484 5 0 0 0 - - - 0;
#X obj 108 68 inlet~;
#N canvas 864 221 910 797 delay~ 0;
#X obj 37 36 delwrite~ \$0-del 1000;
#X obj 37 10 inlet~;
#X obj 256 75 delread~ \$0-del 0;
#X obj 401 24 block~ 1 1 1;
#X obj 256 100 outlet~;
#X obj 256 19 inlet;
#X connect 1 0 0 0;
#X connect 2 0 4 0;
#X connect 5 0 2 0;
#X restore 29 573 pd delay~;
#X f 33;
#X obj 28 487 line~;
#X msg 28 457 \$1 50;
#X obj 28 512 *~, f 7;
#X obj 333 569 line~;
#X msg 333 543 \$1 50;
#X obj 29 620 *~, f 44;
#X obj 213 783 outlet~;
#X floatatom 28 410 10 0 0 0 - - - 0;
#X floatatom 104 410 10 0 0 0 - - - 0;
#X floatatom 180 410 10 0 0 0 - - - 0;
#X floatatom 333 410 11 0 0 0 - - - 0;
#X floatatom 257 410 10 0 0 0 - - - 0;
#X obj 415 569 line~;
#X msg 415 543 \$1 50;
#X floatatom 415 410 11 0 0 0 - - - 0;
#X obj 385 596 osc~;
#X obj 385 621 *~, f 8;
#X obj 423 488 loadbang;
#X msg 423 513 0;
#X floatatom 495 602 10 0 0 0 - - - 0;
#X obj 29 673 *~;
#X obj 495 577 expr 0.5 + -0.5*cos((((1-$f1)/16)+1+((\\\$1-1)/15))*
3.14);
#X floatatom 495 410 11 1 16 0 - - - 0;
#X obj 494 654 line~;
#X msg 494 628 \$1 50;
#X text 613 605 bias-faktor;
#X text 511 433 bias;
#X text 421 435 osc-level;
#X text 337 430 level;
#X text 38 430 gain;
#X text 110 432 base-freq;
#X text 185 434 q;
#X text 262 434 delay;
#X obj 40 97 r \$2-ctl;
#X obj 40 123 route \$3;
#N canvas 647 687 450 300 swap-head 0;
#X obj 29 43 list split 2;
#X obj 29 94 list append;
#X msg 29 68 \$2 \$1;
#X obj 29 119 list trim;
#X obj 29 144 outlet;
#X obj 29 17 inlet;
#X connect 0 0 2 0;
#X connect 0 1 1 1;
#X connect 1 0 3 0;
#X connect 2 0 1 0;
#X connect 3 0 4 0;
#X connect 5 0 0 0;
#X restore 40 207 pd swap-head;
#X obj 40 232 route \$1;
#X obj 40 152 route bias;
#X obj 28 262 route gain base-freq q delay level osc-level, f 66;
#N canvas 691 120 713 644 calc-bias 0;
#X obj 125 32 inlet;
#X obj 9 191 f;
#X obj 9 104 t b b;
#X obj 9 129 until;
#X obj 71 180 sel 100;
#X msg 17 159 0;
#X obj 7 78 bng 15 250 50 0 empty empty empty 17 7 0 10 #fcfcfc #000000
#000000;
#X obj 132 298 pack 0 0;
#X obj 137 179 + 1;
#X obj 132 218 t f f;
#X obj 297 207 t b f;
#X obj 121 351 tabwrite \$0-array2;
#X obj 133 273 expr 0.5 + -0.5*cos((((1-$f2)/15)+1+($f1/99))* 3.14)
;
#X connect 0 0 10 0;
#X connect 1 0 4 0;
#X connect 2 0 3 0;
#X connect 2 1 5 0;
#X connect 3 0 1 0;
#X connect 4 0 3 1;
#X connect 4 1 8 0;
#X connect 4 1 9 0;
#X connect 5 0 1 1;
#X connect 6 0 2 0;
#X connect 7 0 11 0;
#X connect 8 0 1 1;
#X connect 9 0 12 0;
#X connect 9 1 7 1;
#X connect 10 0 6 0;
#X connect 10 1 12 1;
#X connect 12 0 7 0;
#X restore 436 222 pd calc-bias;
#N canvas 1322 737 450 250 (subpatch) 0;
#X array \$0-array2 100 float 3;
#A 0 0.999999 0.999773 0.999044 0.997813 0.996082 0.993851 0.991123
0.987902 0.98419 0.97999 0.975308 0.970148 0.964515 0.958415 0.951853
0.944837 0.937374 0.92947 0.921135 0.912376 0.903202 0.893622 0.883647
0.873286 0.862549 0.851448 0.839993 0.828196 0.816069 0.803623 0.790873
0.77783 0.764507 0.750919 0.737078 0.722998 0.708695 0.694181 0.679472
0.664582 0.649528 0.634322 0.618981 0.603521 0.587956 0.572304 0.556578
0.540795 0.524972 0.509123 0.493265 0.477414 0.461586 0.445796 0.430061
0.414396 0.398817 0.38334 0.367981 0.352754 0.337675 0.32276 0.308022
0.293478 0.279142 0.265028 0.25115 0.237523 0.224159 0.211073 0.198278
0.185786 0.17361 0.161763 0.150256 0.1391 0.128308 0.117889 0.107855
0.0982153 0.0889798 0.0801578 0.0717579 0.0637888 0.0562587 0.0491748
0.0425443 0.0363742 0.0306702 0.0254384 0.020684 0.0164117 0.0126258
0.00933024 0.00652823 0.00422254 0.00241557 0.00110912 0.00030452 2.5332e-06
;
#X coords 0 1 100 0 200 140 1 0 0;
#X restore 436 33 graph;
#X obj 439 177 hsl 195 15 1 16 0 0 empty empty empty -2 -8 0 10 #fcfcfc
#000000 #000000 0 1;
#X floatatom 436 197 5 0 0 0 - - - 0;
#X obj 390 694 env~ 8192;
#X floatatom 390 745 5 0 0 0 - - - 0;
#X obj 464 746 symbol \$3;
#X obj 464 719 loadbang;
#X obj 390 822 s \$2-measure-data;
#X obj 390 771 pack 0 \$1 s;
#X msg 390 796 \$3 mlevel \$2 \$1;
#X obj 28 384 midiscale 0 1 1;
#X obj 181 292 midiscale 0 1 1;
#X obj 258 321 midiscale 0 1 1;
#X obj 332 345 midiscale 0 1 1;
#X obj 412 370 midiscale 0 1 1;
#X obj 390 719 change;
#X obj 729 231 - 100;
#X obj 730 260 vu 15 120 empty empty -1 -8 0 10 #404040 #000000 1 0
;
#X connect 0 0 44 0;
#X connect 1 0 3 0;
#X connect 2 0 5 0;
#X connect 3 0 2 1;
#X connect 3 0 21 0;
#X connect 4 0 8 1;
#X connect 5 0 11 0;
#X connect 6 0 8 0;
#X connect 7 0 6 0;
#X connect 8 0 2 0;
#X connect 9 0 11 1;
#X connect 10 0 9 0;
#X connect 11 0 26 0;
#X connect 13 0 7 0;
#X connect 14 0 1 0;
#X connect 15 0 2 2;
#X connect 16 0 10 0;
#X connect 17 0 5 1;
#X connect 18 0 22 1;
#X connect 19 0 18 0;
#X connect 20 0 19 0;
#X connect 21 0 22 0;
#X connect 22 0 12 0;
#X connect 23 0 24 0;
#X connect 24 0 19 0;
#X connect 25 0 30 0;
#X connect 26 0 12 0;
#X connect 26 0 49 0;
#X connect 27 0 25 0;
#X connect 28 0 27 0;
#X connect 29 0 26 1;
#X connect 30 0 29 0;
#X connect 39 0 40 0;
#X connect 40 0 43 0;
#X connect 41 0 42 0;
#X connect 42 0 44 0;
#X connect 43 0 28 0;
#X connect 43 1 41 0;
#X connect 44 0 56 0;
#X connect 44 1 14 0;
#X connect 44 2 57 0;
#X connect 44 3 58 0;
#X connect 44 4 59 0;
#X connect 44 5 60 0;
#X connect 47 0 48 0;
#X connect 48 0 45 0;
#X connect 49 0 61 0;
#X connect 49 0 62 0;
#X connect 50 0 54 0;
#X connect 51 0 54 2;
#X connect 52 0 51 0;
#X connect 54 0 55 0;
#X connect 55 0 53 0;
#X connect 56 0 13 0;
#X connect 57 0 15 0;
#X connect 58 0 17 0;
#X connect 59 0 16 0;
#X connect 60 0 20 0;
#X connect 61 0 50 0;
#X connect 62 0 63 0;
