#N struct 1740-rectangle float x float c;
#N struct 1740-pixel float x0 float y0;
#N struct 1740-slider float x float y float w float h float c;
#N struct 1758-rectangle float x float c;
#N struct 1758-pixel float x0 float y0;
#N struct 1758-slider float x float y float w float h float c;
#N struct 1776-rectangle float x float c;
#N struct 1776-pixel float x0 float y0;
#N struct 1776-slider float x float y float w float h float c;
#N struct 1805-rectangle float x float c;
#N struct 1805-pixel float x0 float y0;
#N struct 1805-slider float x float y float w float h float c;
#N struct 1968-rectangle float x float c;
#N struct 1968-pixel float x0 float y0;
#N struct 1968-slider float x float y float w float h float c;
#N struct 1970-slider float x float y float w float h float c;
#N struct 5724-rectangle float x float c;
#N struct 5724-pixel float x0 float y0;
#N struct 5724-slider float x float y float w float h float c;
#N struct 5742-rectangle float x float c;
#N struct 5742-pixel float x0 float y0;
#N struct 5742-slider float x float y float w float h float c;
#N struct 5760-rectangle float x float c;
#N struct 5760-pixel float x0 float y0;
#N struct 5760-slider float x float y float w float h float c;
#N struct 5789-rectangle float x float c;
#N struct 5789-pixel float x0 float y0;
#N struct 5789-slider float x float y float w float h float c;
#N struct 5952-rectangle float x float c;
#N struct 5952-pixel float x0 float y0;
#N struct 5952-slider float x float y float w float h float c;
#N struct 5954-slider float x float y float w float h float c;
#N struct 5973-rectangle float x float c;
#N struct 5973-pixel float x0 float y0;
#N struct 5973-slider float x float y float w float h float c;
#N struct 5991-rectangle float x float c;
#N struct 5991-pixel float x0 float y0;
#N struct 5991-slider float x float y float w float h float c;
#N struct 6009-rectangle float x float c;
#N struct 6009-pixel float x0 float y0;
#N struct 6009-slider float x float y float w float h float c;
#N struct 6038-rectangle float x float c;
#N struct 6038-pixel float x0 float y0;
#N struct 6038-slider float x float y float w float h float c;
#N struct 6201-rectangle float x float c;
#N struct 6201-pixel float x0 float y0;
#N struct 6201-slider float x float y float w float h float c;
#N struct 6203-slider float x float y float w float h float c;
#N struct 6222-rectangle float x float c;
#N struct 6222-pixel float x0 float y0;
#N struct 6222-slider float x float y float w float h float c;
#N struct 6240-rectangle float x float c;
#N struct 6240-pixel float x0 float y0;
#N struct 6240-slider float x float y float w float h float c;
#N struct 6258-rectangle float x float c;
#N struct 6258-pixel float x0 float y0;
#N struct 6258-slider float x float y float w float h float c;
#N struct 6287-rectangle float x float c;
#N struct 6287-pixel float x0 float y0;
#N struct 6287-slider float x float y float w float h float c;
#N struct 6450-rectangle float x float c;
#N struct 6450-pixel float x0 float y0;
#N struct 6450-slider float x float y float w float h float c;
#N struct 6452-slider float x float y float w float h float c;
#N struct 6471-rectangle float x float c;
#N struct 6471-pixel float x0 float y0;
#N struct 6471-slider float x float y float w float h float c;
#N struct 6489-rectangle float x float c;
#N struct 6489-pixel float x0 float y0;
#N struct 6489-slider float x float y float w float h float c;
#N struct 6507-rectangle float x float c;
#N struct 6507-pixel float x0 float y0;
#N struct 6507-slider float x float y float w float h float c;
#N struct 6536-rectangle float x float c;
#N struct 6536-pixel float x0 float y0;
#N struct 6536-slider float x float y float w float h float c;
#N struct 6699-rectangle float x float c;
#N struct 6699-pixel float x0 float y0;
#N struct 6699-slider float x float y float w float h float c;
#N struct 6701-slider float x float y float w float h float c;
#N struct 6720-rectangle float x float c;
#N struct 6720-pixel float x0 float y0;
#N struct 6720-slider float x float y float w float h float c;
#N struct 6738-rectangle float x float c;
#N struct 6738-pixel float x0 float y0;
#N struct 6738-slider float x float y float w float h float c;
#N struct 6756-rectangle float x float c;
#N struct 6756-pixel float x0 float y0;
#N struct 6756-slider float x float y float w float h float c;
#N struct 6785-rectangle float x float c;
#N struct 6785-pixel float x0 float y0;
#N struct 6785-slider float x float y float w float h float c;
#N struct 6948-rectangle float x float c;
#N struct 6948-pixel float x0 float y0;
#N struct 6948-slider float x float y float w float h float c;
#N struct 6950-slider float x float y float w float h float c;
#N struct 7965-rectangle float x float c;
#N struct 7965-pixel float x0 float y0;
#N struct 7965-slider float x float y float w float h float c;
#N struct 7983-rectangle float x float c;
#N struct 7983-pixel float x0 float y0;
#N struct 7983-slider float x float y float w float h float c;
#N struct 8001-rectangle float x float c;
#N struct 8001-pixel float x0 float y0;
#N struct 8001-slider float x float y float w float h float c;
#N struct 8030-rectangle float x float c;
#N struct 8030-pixel float x0 float y0;
#N struct 8030-slider float x float y float w float h float c;
#N struct 8193-rectangle float x float c;
#N struct 8193-pixel float x0 float y0;
#N struct 8193-slider float x float y float w float h float c;
#N struct 8195-slider float x float y float w float h float c;
#N struct 8214-rectangle float x float c;
#N struct 8214-pixel float x0 float y0;
#N struct 8214-slider float x float y float w float h float c;
#N struct 8232-rectangle float x float c;
#N struct 8232-pixel float x0 float y0;
#N struct 8232-slider float x float y float w float h float c;
#N struct 8250-rectangle float x float c;
#N struct 8250-pixel float x0 float y0;
#N struct 8250-slider float x float y float w float h float c;
#N struct 8279-rectangle float x float c;
#N struct 8279-pixel float x0 float y0;
#N struct 8279-slider float x float y float w float h float c;
#N struct 8442-rectangle float x float c;
#N struct 8442-pixel float x0 float y0;
#N struct 8442-slider float x float y float w float h float c;
#N struct 8444-slider float x float y float w float h float c;
#N struct 8463-rectangle float x float c;
#N struct 8463-pixel float x0 float y0;
#N struct 8463-slider float x float y float w float h float c;
#N struct 8481-rectangle float x float c;
#N struct 8481-pixel float x0 float y0;
#N struct 8481-slider float x float y float w float h float c;
#N struct 8499-rectangle float x float c;
#N struct 8499-pixel float x0 float y0;
#N struct 8499-slider float x float y float w float h float c;
#N struct 8528-rectangle float x float c;
#N struct 8528-pixel float x0 float y0;
#N struct 8528-slider float x float y float w float h float c;
#N struct 8691-rectangle float x float c;
#N struct 8691-pixel float x0 float y0;
#N struct 8691-slider float x float y float w float h float c;
#N struct 8693-slider float x float y float w float h float c;
#N struct 8712-rectangle float x float c;
#N struct 8712-pixel float x0 float y0;
#N struct 8712-slider float x float y float w float h float c;
#N struct 8730-rectangle float x float c;
#N struct 8730-pixel float x0 float y0;
#N struct 8730-slider float x float y float w float h float c;
#N struct 8748-rectangle float x float c;
#N struct 8748-pixel float x0 float y0;
#N struct 8748-slider float x float y float w float h float c;
#N struct 8777-rectangle float x float c;
#N struct 8777-pixel float x0 float y0;
#N struct 8777-slider float x float y float w float h float c;
#N struct 8940-rectangle float x float c;
#N struct 8940-pixel float x0 float y0;
#N struct 8940-slider float x float y float w float h float c;
#N struct 8942-slider float x float y float w float h float c;
#N canvas 1920 2 1916 648 12;
#X declare -path lib;
#X listbox 141 623 40 0 0 0 - - - 36;
#X obj 7 648 list prepend list;
#X obj 7 673 list trim;
#X obj 3 5 orgelmodul \$0 orgel01;
#X obj 7 623 r \$0-ctl;
#X obj 371 5 orgelmodul \$0 orgel03;
#X obj 739 5 orgelmodul \$0 orgel05;
#X obj 555 5 orgelmodul \$0 orgel04;
#N canvas 1166 25 566 735 osc-handling 0;
#X obj 37 62 oscparse;
#X obj 36 87 list trim;
#X obj 36 112 s \$0-ctl;
#X obj 60 168 r \$0-ctl;
#X obj 116 445 oscformat;
#X floatatom 120 516 5 0 0 0 - - - 0;
#X obj 60 193 list split 2;
#X obj 29 234 list prepend set;
#X obj 29 259 list trim;
#X obj 31 349 list;
#X obj 31 374 list trim;
#X obj 49 296 t b a;
#X obj 52 568 oscparse;
#X listbox 52 597 37 0 0 0 - - - 0;
#X msg 321 219 set Freq;
#X msg 238 429 disconnect \, connect 127.0.0.1 3011;
#X obj 246 374 loadbang;
#X obj 242 404 bng 15 250 50 0 empty empty empty 17 7 0 10 #fcfcfc
#000000 #000000;
#X obj 350 61 r \$0-measure-data;
#X obj 414 127 spigot;
#X obj 414 152 print mlevel;
#X obj 450 98 tgl 15 0 empty empty empty 17 7 0 10 #fcfcfc #000000
#000000 0 1;
#X obj 122 114 print receiving;
#X obj 37 22 netreceive -b -u 3010;
#X obj 116 486 netsend -b -u;
#X connect 0 0 1 0;
#X connect 1 0 2 0;
#X connect 3 0 6 0;
#X connect 4 0 24 0;
#X connect 4 0 12 0;
#X connect 6 0 7 0;
#X connect 6 1 9 1;
#X connect 7 0 8 0;
#X connect 8 0 11 0;
#X connect 9 0 10 0;
#X connect 10 0 4 0;
#X connect 11 0 9 0;
#X connect 11 1 4 0;
#X connect 12 0 13 0;
#X connect 15 0 24 0;
#X connect 16 0 17 0;
#X connect 17 0 15 0;
#X connect 18 0 6 0;
#X connect 18 0 19 0;
#X connect 19 0 20 0;
#X connect 21 0 19 1;
#X connect 23 0 0 0;
#X connect 24 0 5 0;
#X restore 141 677 pd osc-handling;
#X obj 290 708 \$0;
#X floatatom 290 733 5 0 0 0 - - - 0;
#X obj 290 687 bng 15 250 50 0 empty empty empty 17 7 0 10 #fcfcfc
#000000 #000000;
#X obj 923 5 orgelmodul \$0 orgel06;
#X obj 6 699 declare -path lib;
#X obj 147 753 print;
#N canvas 2774 117 976 562 init 0;
#X obj 17 137 s \$0-colors;
#X obj 17 24 loadbang;
#X obj 17 50 bng 15 250 50 0 empty empty empty 17 7 0 10 #fcfcfc #000000
#000000;
#X msg 17 72 333 959 995 599 779 595 977 888 888 888;
#X msg 17 98 0 \$1 \$2 \$2 \$3 \$2 \$4 \$3 \$5 \$2 \$6 \$4 \$7 \$3
\$8 \$5 \$9 \$2 \$2 \$2 \$3 \$2 \$4 \$3 \$5 \$2 \$6 \$4 \$7 \$3 \$8
\$5 \$9 \$2;
#X obj 286 228 \$0;
#X floatatom 286 252 5 0 0 0 - - - 0;
#X obj 290 203 bng 15 250 50 0 empty empty empty 17 7 0 10 #fcfcfc
#000000 #000000;
#X msg 20 279 \; \$1-vu-colors const 357;
#X obj 20 248 \$0;
#X obj 336 222 vsl 15 128 1 16 1 0 empty empty empty 0 -9 0 10 #fcfcfc
#000000 #000000 0 1;
#X floatatom 342 362 5 0 0 0 - - - 0;
#X obj 335 162 loadbang;
#X msg 335 191 1;
#X obj 334 392 s \$0-gain;
#X obj 347 30 table \$0-colors 18;
#X obj 345 56 table \$0-vu-colors 18;
#X connect 1 0 2 0;
#X connect 2 0 3 0;
#X connect 2 0 9 0;
#X connect 3 0 4 0;
#X connect 4 0 0 0;
#X connect 5 0 6 0;
#X connect 7 0 5 0;
#X connect 9 0 8 0;
#X connect 10 0 11 0;
#X connect 11 0 14 0;
#X connect 12 0 13 0;
#X connect 13 0 10 0;
#X restore 5 723 pd init;
#X obj 187 5 orgelmodul \$0 orgel02;
#X obj 1291 5 orgelmodul \$0 orgel08;
#X obj 1107 5 orgelmodul \$0 orgel07;
#X obj 1475 5 orgelmodul \$0 orgel09;
#X obj 1659 5 orgelmodul \$0 orgel10;
#X connect 1 0 2 0;
#X connect 2 0 0 0;
#X connect 4 0 1 0;
#X connect 9 0 10 0;
#X connect 11 0 9 0;
