#N struct 1665-rectangle float x float c;
#N struct 1665-pixel float x0 float y0;
#N struct 1665-slider float x float y float w float h float c;
#N struct 1683-rectangle float x float c;
#N struct 1683-pixel float x0 float y0;
#N struct 1683-slider float x float y float w float h float c;
#N struct 1701-rectangle float x float c;
#N struct 1701-pixel float x0 float y0;
#N struct 1701-slider float x float y float w float h float c;
#N struct 1719-rectangle float x float c;
#N struct 1719-pixel float x0 float y0;
#N struct 1719-slider float x float y float w float h float c;
#N struct 1645-rectangle float x float c;
#N struct 1645-pixel float x0 float y0;
#N struct 1645-slider float x float y float w float h float c;
#N struct 1720-slider float x float y float w float h float c;
#N canvas 0 2 1179 1016 12;
#X declare -path lib;
#X listbox 156 1053 40 0 0 0 - - - 36;
#X obj 22 1078 list prepend list;
#X obj 22 1103 list trim;
#X obj 7 0 orgelmodul \$0 orgel01;
#X obj 22 1053 r \$0-ctl;
#N canvas 1166 25 566 735 osc-handling 0;
#X obj 37 62 oscparse;
#X obj 36 87 list trim;
#X obj 36 112 s \$0-ctl;
#X obj 60 168 r \$0-ctl;
#X obj 116 445 oscformat;
#X floatatom 120 516 5 0 0 0 - - - 0;
#X obj 60 193 list split 2;
#X obj 29 234 list prepend set;
#X obj 29 259 list trim;
#X obj 31 349 list;
#X obj 31 374 list trim;
#X obj 49 296 t b a;
#X obj 52 568 oscparse;
#X listbox 52 597 37 0 0 0 - - - 0;
#X msg 321 219 set Freq;
#X msg 238 429 disconnect \, connect 127.0.0.1 3011;
#X obj 246 374 loadbang;
#X obj 242 404 bng 15 250 50 0 empty empty empty 17 7 0 10 #fcfcfc
#000000 #000000;
#X obj 350 61 r \$0-measure-data;
#X obj 414 127 spigot;
#X obj 414 152 print mlevel;
#X obj 450 98 tgl 15 0 empty empty empty 17 7 0 10 #fcfcfc #000000
#000000 0 1;
#X obj 122 114 print receiving;
#X obj 37 22 netreceive -b -u 3010;
#X obj 116 486 netsend -b -u;
#X connect 0 0 1 0;
#X connect 1 0 2 0;
#X connect 3 0 6 0;
#X connect 4 0 24 0;
#X connect 4 0 12 0;
#X connect 6 0 7 0;
#X connect 6 1 9 1;
#X connect 7 0 8 0;
#X connect 8 0 11 0;
#X connect 9 0 10 0;
#X connect 10 0 4 0;
#X connect 11 0 9 0;
#X connect 11 1 4 0;
#X connect 12 0 13 0;
#X connect 15 0 24 0;
#X connect 16 0 17 0;
#X connect 17 0 15 0;
#X connect 18 0 6 0;
#X connect 18 0 19 0;
#X connect 19 0 20 0;
#X connect 21 0 19 1;
#X connect 23 0 0 0;
#X connect 24 0 5 0;
#X restore 156 1107 pd osc-handling;
#X obj 305 1138 \$0;
#X floatatom 305 1163 5 0 0 0 - - - 0;
#X obj 305 1117 bng 15 250 50 0 empty empty empty 17 7 0 10 #fcfcfc
#000000 #000000;
#X obj 21 1129 declare -path lib;
#X obj 162 1183 print;
#N canvas 653 33 976 562 init 0;
#X obj 17 137 s \$0-colors;
#X obj 17 24 loadbang;
#X obj 17 50 bng 15 250 50 0 empty empty empty 17 7 0 10 #fcfcfc #000000
#000000;
#X msg 17 72 333 959 995 599 779 595 977 888 888 888;
#X msg 17 98 0 \$1 \$2 \$2 \$3 \$2 \$4 \$3 \$5 \$2 \$6 \$4 \$7 \$3
\$8 \$5 \$9 \$2 \$2 \$2 \$3 \$2 \$4 \$3 \$5 \$2 \$6 \$4 \$7 \$3 \$8
\$5 \$9 \$2;
#X obj 286 228 \$0;
#X floatatom 286 252 5 0 0 0 - - - 0;
#X obj 290 203 bng 15 250 50 0 empty empty empty 17 7 0 10 #fcfcfc
#000000 #000000;
#X obj 347 30 table \$0-colors 16;
#X obj 345 56 table \$0-vu-colors 16;
#X msg 20 279 \; \$1-vu-colors const 357;
#X obj 20 248 \$0;
#X connect 1 0 2 0;
#X connect 2 0 3 0;
#X connect 2 0 11 0;
#X connect 3 0 4 0;
#X connect 4 0 0 0;
#X connect 5 0 6 0;
#X connect 7 0 5 0;
#X connect 11 0 10 0;
#X restore 20 1153 pd init;
#X connect 1 0 2 0;
#X connect 2 0 0 0;
#X connect 4 0 1 0;
#X connect 6 0 7 0;
#X connect 8 0 6 0;
