#N canvas 2950 85 450 300 12;
#N canvas 2693 451 450 300 count16 1;
#X obj 123 49 inlet;
#X obj 130 257 outlet;
#X restore 121 32 pd count16;
#N canvas 2411 131 450 300 bias-cos 0;
#X obj 69 46 inlet partial;
#X obj 194 44 inlet bias-pos;
#X obj 321 46 inlet bias-bw;
#X obj 127 241 outlet;
#X restore 120 139 pd bias-cos;
#X obj 164 96 r bias-pos;
#X obj 262 97 r bias-bw;
#N canvas 2457 47 450 300 notch 1;
#X obj 107 93 inlet;
#X obj 110 203 outlet;
#X obj 174 101 inlet;
#X restore 155 209 pd notch;
#X obj 219 173 r bias-type;
#X obj 155 234 s level;
#X obj 122 8 bng 15 250 50 0 empty empty empty 17 7 0 10 #fcfcfc #000000
#000000;
#X connect 0 0 1 0;
#X connect 1 0 4 0;
#X connect 2 0 1 1;
#X connect 3 0 1 2;
#X connect 4 0 6 0;
#X connect 5 0 4 1;
#X connect 7 0 0 0;
