#N canvas 1920 2 1916 1016 12;
#X declare -path lib;
#X listbox 138 844 40 0 0 0 - - - 36;
#X obj 4 869 list prepend list;
#X obj 4 894 list trim;
#X obj 3 5 orgelmodul \$0 orgel01;
#X obj 4 844 r \$0-ctl;
#X obj 311 5 orgelmodul \$0 orgel02;
#X obj 618 5 orgelmodul \$0 orgel03;
#X obj 1232 5 orgelmodul \$0 orgel05;
#X obj 925 5 orgelmodul \$0 orgel04;
#N canvas 1166 25 566 735 osc-handling 1;
#X obj 37 37 netreceive -b -u 3010;
#X obj 37 62 oscparse;
#X obj 36 87 list trim;
#X obj 36 112 s \$0-ctl;
#X obj 60 168 r \$0-ctl;
#X obj 116 445 oscformat;
#X obj 116 486 netsend -b -u;
#X floatatom 120 516 5 0 0 0 - - - 0;
#X obj 60 193 list split 2;
#X obj 29 234 list prepend set;
#X obj 29 259 list trim;
#X obj 31 349 list;
#X obj 31 374 list trim;
#X obj 49 296 t b a;
#X obj 52 568 oscparse;
#X listbox 52 597 37 0 0 0 - - - 0;
#X obj 210 345 oscformat;
#X obj 217 151 vsl 15 128 0 127 0 0 empty empty empty 0 -9 0 10 #fcfcfc
#000000 #000000 0 1;
#X msg 321 219 set Freq;
#X msg 238 429 disconnect \, connect 127.0.0.1 3011;
#X obj 246 374 loadbang;
#X obj 242 404 bng 15 250 50 0 empty empty empty 17 7 0 10 #fcfcfc
#000000 #000000;
#X obj 350 61 r \$0-measure-data;
#X obj 414 127 spigot;
#X obj 414 152 print mlevel;
#X obj 450 98 tgl 15 0 empty empty empty 17 7 0 10 #fcfcfc #000000
#000000 0 1;
#X connect 0 0 1 0;
#X connect 1 0 2 0;
#X connect 2 0 3 0;
#X connect 4 0 8 0;
#X connect 5 0 6 0;
#X connect 5 0 14 0;
#X connect 6 0 7 0;
#X connect 8 0 9 0;
#X connect 8 1 11 1;
#X connect 9 0 10 0;
#X connect 10 0 13 0;
#X connect 11 0 12 0;
#X connect 12 0 5 0;
#X connect 13 0 11 0;
#X connect 13 1 5 0;
#X connect 14 0 15 0;
#X connect 16 0 6 0;
#X connect 16 0 14 0;
#X connect 17 0 16 0;
#X connect 18 0 16 0;
#X connect 19 0 6 0;
#X connect 20 0 21 0;
#X connect 21 0 19 0;
#X connect 22 0 8 0;
#X connect 22 0 23 0;
#X connect 23 0 24 0;
#X connect 25 0 23 1;
#X restore 138 898 pd osc-handling;
#X obj 287 929 \$0;
#X floatatom 287 954 5 0 0 0 - - - 0;
#X obj 287 908 bng 15 250 50 0 empty empty empty 17 7 0 10 #fcfcfc
#000000 #000000;
#X obj 1539 5 orgelmodul \$0 orgel06;
#X obj 3 920 declare -path lib;
#X connect 1 0 2 0;
#X connect 2 0 0 0;
#X connect 4 0 1 0;
#X connect 10 0 11 0;
#X connect 12 0 10 0;
