#N canvas 2624 58 1010 940 12;
#X obj 18 10 inlet;
#X obj 94 356 * \$1;
#X obj 19 439 bp~, f 22;
#X floatatom 94 381 5 0 0 0 - - - 0;
#X obj 168 10 inlet~;
#N canvas 844 7 910 797 delay~ 1;
#X obj 37 36 delwrite~ \$0-del 1000;
#X obj 37 10 inlet~;
#X obj 256 134 outlet~;
#X obj 256 19 inlet;
#X obj 256 80 line~;
#X obj 256 109 delread4~ \$0-del 0;
#X msg 256 48 \$1 50;
#X connect 1 0 0 0;
#X connect 3 0 6 0;
#X connect 4 0 5 0;
#X connect 5 0 2 0;
#X connect 6 0 4 0;
#X restore 19 470 pd delay~;
#X f 33;
#X obj 18 384 line~;
#X msg 18 354 \$1 50;
#X obj 18 409 *~, f 7;
#X obj 260 617 line~;
#X msg 260 591 \$1 50;
#X obj 19 657 *~, f 26;
#X obj 18 726 outlet~;
#X floatatom 18 312 10 0 0 0 - - - 0;
#X floatatom 94 312 10 0 0 0 - - - 0;
#X floatatom 170 312 10 0 0 0 - - - 0;
#X floatatom 323 312 11 0 0 0 - - - 0;
#X floatatom 247 312 10 0 0 0 - - - 0;
#X obj 526 627 line~;
#X msg 526 601 \$1 50;
#X floatatom 405 312 11 0 0 0 - - - 0;
#X obj 474 629 osc~;
#X obj 474 654 *~, f 8;
#X obj 530 546 loadbang;
#X msg 530 571 0;
#X floatatom 485 312 11 1 16 0 - - - 0;
#X text 603 545 bias-faktor;
#X text 501 338 bias;
#X text 411 337 osc-level;
#X text 327 332 level;
#X text 28 332 gain;
#X text 100 334 base-freq;
#X text 175 336 q;
#X text 252 336 delay;
#X obj 30 37 r \$2-ctl;
#X obj 30 63 route \$3;
#N canvas 647 687 450 300 swap-head 0;
#X obj 29 43 list split 2;
#X obj 29 94 list append;
#X msg 29 68 \$2 \$1;
#X obj 29 119 list trim;
#X obj 29 144 outlet;
#X obj 29 17 inlet;
#X connect 0 0 2 0;
#X connect 0 1 1 1;
#X connect 1 0 3 0;
#X connect 2 0 1 0;
#X connect 3 0 4 0;
#X connect 5 0 0 0;
#X restore 30 147 pd swap-head;
#X obj 30 172 route \$1;
#X obj 18 202 route gain base-freq q delay level osc-level, f 66;
#X obj 93 726 env~ 8192;
#X floatatom 93 777 5 0 0 0 - - - 0;
#X obj 167 778 symbol \$3;
#X obj 167 751 loadbang;
#X obj 93 854 s \$2-measure-data;
#X obj 93 803 pack 0 \$1 s;
#X msg 93 828 \$3 mlevel \$2 \$1;
#X obj 93 751 change;
#X obj 323 724 - 100;
#X obj 324 753 vu 15 120 empty empty -1 -8 0 10 #404040 #000000 1 0
;
#N canvas 942 44 822 1013 calc-bias 0;
#X obj 37 91 t b f;
#X obj 153 335 clip -3.14159 3.14159;
#X obj 152 307 expr ((($f1-$f2)/15))*23.58/$f3;
#X obj 451 408 clip 15 16;
#X floatatom 451 363 5 0 0 0 - - - 0;
#X obj 153 448 expr ((0.5+0.5*cos($f1))*(16-$f2))+($f2-15);
#X obj 338 6 inlet bw;
#X obj 589 11 inlet type;
#X obj 101 168 \$1;
#X obj 227 674 symbol \$3;
#X obj 151 781 pack 0 \$1 s;
#X obj 240 574 loadbang;
#X obj 156 476 spigot;
#X obj 206 478 spigot;
#X obj 582 149 == 0;
#X obj 624 150 == 1;
#X msg 690 25 0;
#X floatatom 589 78 5 0 0 0 - - - 0;
#X obj 240 606 bng 15 250 50 0 empty empty empty 17 7 0 10 #fcfcfc
#000000 #000000;
#X floatatom 176 727 5 0 0 0 - - - 0;
#X obj 270 77 t b f;
#X obj 528 55 t b f;
#X floatatom 158 648 5 0 0 0 - - - 0;
#X obj 206 506 expr 1-$f1;
#X floatatom 307 163 5 0 0 0 - - - 0;
#X floatatom 139 83 5 0 0 0 - - - 0;
#X obj 171 875 outlet;
#X msg 151 806 \$3 bias-level \$2 \$1;
#X obj 194 831 s \$2-ctl;
#X text 83 283 partial;
#X text 252 272 bias-pos;
#X text 369 271 bw;
#X obj 27 3 inlet bias-pos;
#X floatatom 417 47 5 0 0 0 - - - 0;
#X obj 26 33 ./scale 0 1 1 16 1;
#X obj 270 51 ./scale 0 1 0.5 16 1;
#X connect 0 0 8 0;
#X connect 0 1 2 1;
#X connect 0 1 25 0;
#X connect 1 0 5 0;
#X connect 2 0 1 0;
#X connect 3 0 5 1;
#X connect 4 0 3 0;
#X connect 5 0 12 0;
#X connect 5 0 13 0;
#X connect 6 0 33 0;
#X connect 6 0 35 0;
#X connect 7 0 17 0;
#X connect 7 0 21 0;
#X connect 8 0 2 0;
#X connect 9 0 10 2;
#X connect 10 0 27 0;
#X connect 11 0 18 0;
#X connect 12 0 22 0;
#X connect 13 0 23 0;
#X connect 14 0 12 1;
#X connect 15 0 13 1;
#X connect 16 0 17 0;
#X connect 17 0 14 0;
#X connect 17 0 15 0;
#X connect 18 0 9 0;
#X connect 18 0 16 0;
#X connect 20 0 8 0;
#X connect 20 1 2 2;
#X connect 20 1 4 0;
#X connect 20 1 24 0;
#X connect 21 0 8 0;
#X connect 21 1 17 0;
#X connect 22 0 26 0;
#X connect 22 0 10 0;
#X connect 23 0 22 0;
#X connect 27 0 28 0;
#X connect 32 0 34 0;
#X connect 34 0 0 0;
#X connect 35 0 20 0;
#X restore 30 121 pd calc-bias;
#X obj 323 636 line~;
#X msg 323 610 \$1 50;
#X obj 31 688 *~, f 44;
#X obj 39 499 r \$2-\$3-ramp-up;
#X obj 61 525 r \$2-\$3-ramp-down;
#X obj 83 551 r \$2-\$3-min-amp;
#X obj 105 578 r \$2-\$3-max-amp;
#X obj 127 602 r \$2-\$3-exp-base;
#X obj 364 97 route base-freq ramp-up ramp-down exp-base min-amp max-amp
phase;
#X msg 364 137 base-freq \$1;
#X obj 170 382 line;
#X msg 170 357 \$1 50;
#X obj 30 92 route bias-pos bias-bw bias-type;
#X obj 224 263 n-scale 0 1 1;
#X obj 171 231 n-scale 0 50 1;
#X obj 405 257 n-scale 0 1 1;
#X obj 619 365 env~ 8192;
#X obj 849 363 - 100;
#X obj 850 392 vu 15 120 empty empty -1 -8 0 10 #404040 #000000 1 0
;
#X msg 411 775 \$2 \$1;
#X obj 411 882 s \$2-\$3-vu;
#X obj 411 800 unpack 0 0;
#X obj 412 851 pack 0 0;
#X obj 411 825 - 1;
#X obj 316 233 expr 2000/$f1;
#X obj 18 628 leveler~ 140 140;
#X connect 0 0 38 0;
#X connect 1 0 3 0;
#X connect 2 0 5 0;
#X connect 3 0 2 1;
#X connect 3 0 21 0;
#X connect 3 0 74 0;
#X connect 4 0 8 1;
#X connect 4 0 66 0;
#X connect 5 0 75 0;
#X connect 6 0 8 0;
#X connect 7 0 6 0;
#X connect 8 0 2 0;
#X connect 9 0 11 1;
#X connect 10 0 9 0;
#X connect 11 0 12 0;
#X connect 11 0 39 0;
#X connect 13 0 7 0;
#X connect 14 0 1 0;
#X connect 15 0 61 0;
#X connect 16 0 10 0;
#X connect 17 0 5 1;
#X connect 18 0 22 1;
#X connect 19 0 18 0;
#X connect 20 0 19 0;
#X connect 21 0 22 0;
#X connect 22 0 12 0;
#X connect 23 0 24 0;
#X connect 24 0 19 0;
#X connect 25 0 51 0;
#X connect 34 0 35 0;
#X connect 35 0 62 0;
#X connect 36 0 37 0;
#X connect 37 0 38 0;
#X connect 38 0 13 0;
#X connect 38 1 14 0;
#X connect 38 2 64 0;
#X connect 38 3 63 0;
#X connect 38 4 16 0;
#X connect 38 5 65 0;
#X connect 39 0 46 0;
#X connect 39 0 47 0;
#X connect 40 0 44 0;
#X connect 41 0 44 2;
#X connect 42 0 41 0;
#X connect 44 0 45 0;
#X connect 44 0 69 0;
#X connect 45 0 43 0;
#X connect 46 0 40 0;
#X connect 47 0 48 0;
#X connect 49 0 25 0;
#X connect 50 0 52 1;
#X connect 51 0 50 0;
#X connect 52 0 12 0;
#X connect 53 0 75 1;
#X connect 54 0 75 2;
#X connect 55 0 75 3;
#X connect 56 0 75 4;
#X connect 57 0 75 5;
#X connect 58 0 59 0;
#X connect 58 7 36 0;
#X connect 59 0 38 0;
#X connect 60 0 2 2;
#X connect 61 0 60 0;
#X connect 62 0 49 0;
#X connect 62 1 49 1;
#X connect 62 2 49 2;
#X connect 62 3 58 0;
#X connect 63 0 17 0;
#X connect 64 0 15 0;
#X connect 65 0 20 0;
#X connect 66 0 67 0;
#X connect 67 0 68 0;
#X connect 69 0 71 0;
#X connect 71 0 73 0;
#X connect 71 1 72 1;
#X connect 72 0 70 0;
#X connect 73 0 72 0;
#X connect 74 0 63 2;
#X connect 75 0 11 0;
