#N struct 1740-rectangle float x float c;
#N struct 1740-pixel float x0 float y0;
#N struct 1740-slider float x float y float w float h float c;
#N struct 1758-rectangle float x float c;
#N struct 1758-pixel float x0 float y0;
#N struct 1758-slider float x float y float w float h float c;
#N struct 1776-rectangle float x float c;
#N struct 1776-pixel float x0 float y0;
#N struct 1776-slider float x float y float w float h float c;
#N struct 1805-rectangle float x float c;
#N struct 1805-pixel float x0 float y0;
#N struct 1805-slider float x float y float w float h float c;
#N struct 1968-rectangle float x float c;
#N struct 1968-pixel float x0 float y0;
#N struct 1968-slider float x float y float w float h float c;
#N struct 1970-slider float x float y float w float h float c;
#N canvas 470 84 1279 1012 12;
#X declare -path lib;
#X listbox 334 495 20 0 0 0 - - - 0;
#X obj 334 441 list prepend list;
#X obj 334 466 list trim;
#X obj 0 0 cnv 15 180 610 empty empty \$2 20 24 0 18 #404040 #00ff04
0;
#X obj 95 38 nbx 7 9 -1e+37 1e+37 0 0 \$1-\$2-base-freq \$1-\$2-base-freq
base-freq 46 4 0 6 #bbbbbb #000000 #00ff04 0 256;
#X obj 10 268 vsl16 \$1 \$2 delay;
#X obj 10 351 vsl16 \$1 \$2 q;
#X obj 10 434 vsl16 \$1 \$2 gain;
#X obj 334 416 r \$1-ctl;
#N canvas 266 8 685 1005 ctl-dispatch 0;
#X obj 16 9 ctl-dispatch \$1 \$2 base-freq;
#X obj 16 34 ctl-dispatch \$1 \$2 ramp-up;
#X obj 16 58 ctl-dispatch \$1 \$2 ramp-down;
#X obj 16 82 ctl-dispatch \$1 \$2 min-amp;
#X obj 16 106 ctl-dispatch \$1 \$2 max-amp;
#X obj 17 129 ctl-dispatch \$1 \$2 exp-base;
#X obj 18 177 ctl-dispatch \$1 \$2 main;
#X obj 18 200 ctl-dispatch \$1 \$2 phase;
#X obj 19 237 ctl-dispatch \$1 \$2 bias-bw;
#X obj 19 265 ctl-dispatch \$1 \$2 bias-type;
#X obj 17 153 ctl-dispatch \$1 \$2 bias-pos;
#X restore 326 21 pd ctl-dispatch;
#X obj 9 38 nbx 7 9 -1e+37 1e+37 0 0 \$1-\$2-ramp-up \$1-\$2-ramp-up
ramp-up 46 4 0 6 #bbbbbb #000000 #00ff04 0 256;
#X obj 9 51 nbx 7 9 -1e+37 1e+37 0 0 \$1-\$2-ramp-down \$1-\$2-ramp-down
ramp-down 46 4 0 6 #bbbbbb #000000 #00ff04 0 256;
#X obj 95 63 nbx 7 9 -1e+37 1e+37 0 0 \$1-\$2-min-amp \$1-\$2-min-amp
min-amp 46 4 0 6 #bbbbbb #000000 #00ff04 0 256;
#X obj 95 50 nbx 7 9 -1e+37 1e+37 0 0 \$1-\$2-max-amp \$1-\$2-max-amp
max-amp 46 4 0 6 #bbbbbb #000000 #00ff04 0 256;
#X obj 9 64 nbx 7 9 -1e+37 1e+37 0 0 \$1-\$2-exp-base \$1-\$2-exp-base
exp-base 46 4 0 6 #bbbbbb #000000 #00ff04 0 256;
#X obj 10 517 vsl16 \$1 \$2 osc-level;
#X obj 334 376 s \$1-ctl;
#X msg 334 348 orgel04 level 3 64;
#X obj 96 79 invert-switch \$1 \$2;
#X obj 9 248 hsl 122 8 0 1 0 0 \$1-\$2-bias-pos \$1-\$2-bias-pos bias-pos
85 16 0 7 #606060 #ff8300 #00ff04 0 1;
#X obj 154 102 vsl 8 120 0 1 0 0 \$1-\$2-main \$1-\$2-main main -8
-12 0 8 #606060 #ff8300 #00ff04 0 1;
#X obj 333 85 clone -s 1 orgelmodulvoice 16 \$1 \$2;
#X obj 358 118 r \$1-\$2-phase;
#X floatatom 358 195 5 0 0 0 - - - 0;
#X obj 373 142 loadbang;
#X msg 373 167 1;
#X obj 333 220 *~ 1;
#X obj 443 157 r \$1-\$2-main;
#X obj 404 244 line~;
#X obj 334 271 *~;
#X obj 443 182 route set;
#X msg 404 219 \$1 50;
#X floatatom 492 209 5 0 0 0 - - - 0;
#X obj 548 118 env~ 8192;
#X obj 548 143 - 100;
#X obj 549 172 vu 15 120 empty empty -1 -8 0 10 #404040 #000000 1 0
;
#X msg 746 214 vis \$1 \$2;
#X obj 340 623 pack 0 0;
#X obj 335 529 hradio 15 1 0 16 empty empty empty 0 -8 0 10 #fcfcfc
#000000 #000000 0;
#X obj 335 549 + 1;
#X obj 368 552 tgl 15 0 empty empty empty 17 7 0 10 #fcfcfc #000000
#000000 0 1;
#X obj 943 99 line~;
#X msg 943 74 \$1 50;
#X obj 712 83 *~;
#X obj 864 309 env~ 8192;
#X obj 864 334 - 100;
#X obj 865 363 vu 15 120 empty empty -1 -8 0 10 #404040 #000000 1 0
;
#X obj 367 578 t b f;
#X obj 10 166 vsl16 \$1 \$2 level;
#X obj 118 147 bias-type \$1 \$2;
#X obj 1075 553 noise~;
#X obj 1077 578 *~;
#X msg 1142 553 1 \, 0 10, f 8;
#X obj 1142 578 line~;
#X obj 1077 603 dac~ 1;
#X obj 1004 600 adc~ 1;
#X obj 1084 708 tabwrite~ \$0-array-rec;
#X obj 1129 497 bng 15 250 50 0 empty empty empty 17 7 0 10 #fcfcfc
#000000 #000000;
#X obj 1004 625 *~ 10;
#X obj 990 827 table \$0-array-rec 10000;
#X obj 334 321 dac~ 1;
#X obj 575 30 adc~ 1;
#X obj 960 48 r \$1-gain;
#X obj 677 22 declare -path lib;
#X obj 10 102 mvu 120 40 16 \$1-\$2-vu \$1-vu-colors;
#X obj 136 184 vsl 8 64 0 1 0 0 \$1-\$2-bias-bw \$1-\$2-bias-bw bias-bw
-30 -16 0 7 #606060 #bbbbbb #00ff04 0 1;
#X connect 1 0 2 0;
#X connect 2 0 0 0;
#X connect 8 0 1 0;
#X connect 17 0 16 0;
#X connect 21 0 26 0;
#X connect 21 0 33 0;
#X connect 22 0 23 0;
#X connect 23 0 26 1;
#X connect 24 0 25 0;
#X connect 25 0 23 0;
#X connect 26 0 29 0;
#X connect 27 0 30 0;
#X connect 28 0 29 1;
#X connect 29 0 60 0;
#X connect 30 1 31 0;
#X connect 30 1 32 0;
#X connect 31 0 28 0;
#X connect 33 0 34 0;
#X connect 34 0 35 0;
#X connect 36 0 21 0;
#X connect 37 0 36 0;
#X connect 38 0 39 0;
#X connect 39 0 37 0;
#X connect 40 0 47 0;
#X connect 41 0 43 1;
#X connect 42 0 41 0;
#X connect 43 0 44 0;
#X connect 43 0 21 1;
#X connect 44 0 45 0;
#X connect 45 0 46 0;
#X connect 47 0 37 0;
#X connect 47 1 37 1;
#X connect 50 0 51 0;
#X connect 51 0 54 0;
#X connect 51 0 56 0;
#X connect 52 0 53 0;
#X connect 53 0 51 1;
#X connect 55 0 58 0;
#X connect 57 0 56 0;
#X connect 57 0 52 0;
#X connect 58 0 56 0;
#X connect 61 0 43 0;
#X connect 62 0 42 0;
#X coords 0 -1 1 1 180 610 1 0 0;
